<?xml version="1.0" standalone="no"?><!DOCTYPE svg PUBLIC "-//W3C//DTD SVG 1.1//EN" "http://www.w3.org/Graphics/SVG/1.1/DTD/svg11.dtd"><svg t="1712834204516" class="icon" viewBox="0 0 1284 1024" version="1.1" xmlns="http://www.w3.org/2000/svg" p-id="4363" width="61.44140625" height="49" xmlns:xlink="http://www.w3.org/1999/xlink"><path d="M1284.792274 225.356673a148.579986 148.579986 0 0 0-6.631184-44.346049c-1.243347-3.730041-2.693919-7.460083-4.144491-11.190124v-2.486694a149.408884 149.408884 0 0 0-137.389861-91.178792h-117.289083v-4.351715a71.699686 71.699686 0 0 0-143.606597 0v4.351715H409.061423v-4.351715a71.699686 71.699686 0 1 0-143.606597 0v4.351715H108.17141A108.378428 108.378428 0 0 0 0.000207 184.740666v730.673682a108.378428 108.378428 0 0 0 108.171203 108.378427H1135.590615a149.201659 149.201659 0 0 0 149.201659-149.201659V341.816857zM108.17141 138.529596h167.437418a71.078013 71.078013 0 0 0 124.334716 0h485.734291a71.078013 71.078013 0 0 0 124.334717 0h126.406961A86.827077 86.827077 0 0 1 1222.624916 225.356673V310.940403H62.167565V184.740666a46.21107 46.21107 0 0 1 46.003845-46.21107z m828.898108-66.519073a9.532328 9.532328 0 0 1 19.271881 0v30.462006a9.532328 9.532328 0 0 1-19.271881 0z m-610.276232 0a9.532328 9.532328 0 1 1 19.271881 0v30.462006a9.532328 9.532328 0 1 1-19.271881 0z m808.175655 889.822119H108.17141A46.21107 46.21107 0 0 1 62.167565 915.414348V373.107761h1160.457351v501.69058a87.034301 87.034301 0 0 1-87.034301 87.034301z" fill="#0074FF" p-id="4364"></path><path d="M766.730957 474.23333H538.783977a31.083679 31.083679 0 0 0-31.083679 31.083679v96.981079a31.083679 31.083679 0 0 0 31.083679 31.083679h60.509562l-63.410705 199.349995a31.083679 31.083679 0 0 0 29.633107 41.444905h101.954468a31.083679 31.083679 0 0 0 29.840331-22.380249l98.431651-337.775979a31.083679 31.083679 0 0 0-29.011434-39.787109z m-122.262471 336.739856h-36.057068l63.410706-199.349995a31.083679 31.083679 0 0 0-29.633108-41.444905h-72.114135v-33.777598H725.286052z" fill="#0074FF" p-id="4365"></path></svg>